RobotoSerifTextWide-Hairline 01h.ufo
<glyph name="B" format="2">
  <advance width="716"/>
  <unicode hex="0042"/>
  <outline>
    <contour>
      <point x="398" y="710" type="curve" smooth="yes"/>
      <point x="52" y="710" type="line"/>
      <point x="52" y="680" type="line"/>
      <point x="65" y="680" type="line" smooth="yes"/>
      <point x="122" y="680"/>
      <point x="164.0" y="673.0"/>
      <point x="164" y="644" type="curve" smooth="yes"/>
      <point x="164" y="66" type="line" smooth="yes"/>
      <point x="164" y="37"/>
      <point x="122" y="30"/>
      <point x="65" y="30" type="curve" smooth="yes"/>
      <point x="52" y="30" type="line"/>
      <point x="52" y="0" type="line"/>
      <point x="408" y="0" type="line" smooth="yes"/>
      <point x="562" y="0"/>
      <point x="655.0" y="73.0"/>
      <point x="655" y="191" type="curve" smooth="yes"/>
      <point x="655.0" y="296.0"/>
      <point x="573" y="366"/>
      <point x="413" y="381" type="curve"/>
      <point x="425" y="363" type="line"/>
      <point x="425" y="385" type="line"/>
      <point x="413" y="367" type="line"/>
      <point x="549" y="383"/>
      <point x="619.0" y="452.0"/>
      <point x="619" y="543" type="curve" smooth="yes"/>
      <point x="619" y="645"/>
      <point x="542" y="710"/>
    </contour>
    <contour>
      <point x="204" y="30" type="line"/>
      <point x="204" y="680" type="line"/>
      <point x="396" y="680" type="line" smooth="yes"/>
      <point x="514" y="680"/>
      <point x="577" y="629"/>
      <point x="577" y="543" type="curve" smooth="yes"/>
      <point x="577.0" y="452.0"/>
      <point x="506" y="387"/>
      <point x="362" y="387" type="curve" smooth="yes"/>
      <point x="194" y="387" type="line"/>
      <point x="194" y="357" type="line"/>
      <point x="372" y="357" type="line" smooth="yes"/>
      <point x="530" y="357"/>
      <point x="612.0" y="290.0"/>
      <point x="612" y="192" type="curve" smooth="yes"/>
      <point x="612.0" y="88.0"/>
      <point x="541" y="30"/>
      <point x="409" y="30" type="curve" smooth="yes"/>
    </contour>
  </outline>
</glyph>
<glyph name="C" format="2">
  <advance width="795"/>
  <unicode hex="0043"/>
  <anchor x="412.016" y="741.0" name="top"/>
  <anchor x="412.016" y="0.0" name="bottom"/>
  <outline>
    <contour>
      <point x="415" y="690" type="curve" smooth="yes"/>
      <point x="560.0666666666666" y="690.0"/>
      <point x="652" y="611"/>
      <point x="687" y="506" type="curve"/>
      <point x="719" y="506" type="line"/>
      <point x="719" y="710" type="line"/>
      <point x="692" y="710" type="line"/>
      <point x="679" y="548" type="line"/>
      <point x="696" y="567" type="line"/>
      <point x="651" y="661"/>
      <point x="547" y="720.0"/>
      <point x="415" y="720" type="curve" smooth="yes"/>
      <point x="220" y="720"/>
      <point x="54" y="569"/>
      <point x="54" y="355" type="curve" smooth="yes"/>
      <point x="54" y="138"/>
      <point x="205" y="-10"/>
      <point x="422" y="-10" type="curve" smooth="yes"/>
      <point x="591" y="-10"/>
      <point x="691" y="78"/>
      <point x="734" y="201" type="curve"/>
      <point x="700" y="215" type="line"/>
      <point x="666" y="107"/>
      <point x="580.8571428571429" y="20.0"/>
      <point x="422" y="20" type="curve" smooth="yes"/>
      <point x="232.0" y="20.0"/>
      <point x="97.0" y="156"/>
      <point x="97" y="355" type="curve" smooth="yes"/>
      <point x="97" y="557"/>
      <point x="242.0" y="690.0"/>
    </contour>
  </outline>
</glyph>
<glyph name="D" format="2">
  <advance width="833"/>
  <unicode hex="0044"/>
  <anchor x="415.8136" y="741.0" name="top"/>
  <anchor x="415.8136" y="0.0" name="bottom"/>
  <outline>
    <contour>
      <point x="52" y="680" type="line"/>
      <point x="66" y="680" type="line" smooth="yes"/>
      <point x="123" y="680"/>
      <point x="165" y="671"/>
      <point x="165" y="644" type="curve" smooth="yes"/>
      <point x="165" y="66" type="line" smooth="yes"/>
      <point x="165.0" y="37.0"/>
      <point x="123" y="30"/>
      <point x="66" y="30" type="curve" smooth="yes"/>
      <point x="52" y="30" type="line"/>
      <point x="52" y="0" type="line"/>
      <point x="343" y="0" type="line" smooth="yes"/>
      <point x="625.0" y="0.0"/>
      <point x="778" y="141"/>
      <point x="778" y="357" type="curve" smooth="yes"/>
      <point x="778" y="574"/>
      <point x="623.0" y="710.0"/>
      <point x="343" y="710" type="curve" smooth="yes"/>
      <point x="52" y="710" type="line"/>
    </contour>
    <contour>
      <point x="343" y="680" type="line" smooth="yes"/>
      <point x="595.0" y="680.0"/>
      <point x="735" y="562"/>
      <point x="735" y="357" type="curve" smooth="yes"/>
      <point x="735" y="152"/>
      <point x="596.0" y="30.0"/>
      <point x="343" y="30" type="curve" smooth="yes"/>
      <point x="205" y="30" type="line"/>
      <point x="205" y="680" type="line"/>
    </contour>
  </outline>
</glyph>
<glyph name="E" format="2">
  <advance width="687"/>
  <unicode hex="0045"/>
  <anchor x="404.43359999999996" y="741.0" name="top"/>
  <anchor x="473.6796" y="0.0" name="right"/>
  <anchor x="404.43359999999996" y="0.0" name="bottom"/>
  <outline>
    <contour>
      <point x="623" y="189" type="line"/>
      <point x="596" y="189" type="line"/>
      <point x="585" y="73" type="line" smooth="yes"/>
      <point x="582" y="37"/>
      <point x="540" y="30"/>
      <point x="440" y="30" type="curve" smooth="yes"/>
      <point x="204" y="30" type="line"/>
      <point x="204" y="680" type="line"/>
      <point x="407" y="680" type="line" smooth="yes"/>
      <point x="506" y="680"/>
      <point x="548" y="673"/>
      <point x="552" y="637" type="curve" smooth="yes"/>
      <point x="562" y="546" type="line"/>
      <point x="589" y="546" type="line"/>
      <point x="589" y="710" type="line"/>
      <point x="52" y="710" type="line"/>
      <point x="52" y="680" type="line"/>
      <point x="65" y="680" type="line" smooth="yes"/>
      <point x="122" y="680"/>
      <point x="164.0" y="673.0"/>
      <point x="164" y="644" type="curve" smooth="yes"/>
      <point x="164" y="66" type="line" smooth="yes"/>
      <point x="164" y="37"/>
      <point x="122" y="30"/>
      <point x="65" y="30" type="curve" smooth="yes"/>
      <point x="52" y="30" type="line"/>
      <point x="52" y="0" type="line"/>
      <point x="623" y="0" type="line"/>
    </contour>
    <contour>
      <point x="182" y="379" type="curve"/>
      <point x="182" y="350" type="line"/>
      <point x="289" y="349"/>
      <point x="370" y="348"/>
      <point x="499" y="346" type="curve"/>
      <point x="499" y="383" type="line"/>
      <point x="384" y="381"/>
      <point x="288" y="380"/>
    </contour>
  </outline>
</glyph>
<glyph name="N" format="2">
  <advance width="874"/>
  <unicode hex="004E"/>
  <anchor x="445.5332" y="741.0" name="top"/>
  <anchor x="445.5332" y="0.0" name="bottom"/>
  <outline>
    <contour>
      <point x="52" y="0" type="line"/>
      <point x="324" y="0" type="line"/>
      <point x="324" y="30" type="line"/>
      <point x="308" y="30" type="line" smooth="yes"/>
      <point x="258" y="30"/>
      <point x="201.0" y="38.0"/>
      <point x="201" y="45" type="curve" smooth="yes"/>
      <point x="201" y="695" type="line"/>
      <point x="181" y="700" type="line"/>
      <point x="664" y="0" type="line"/>
      <point x="710" y="0" type="line"/>
      <point x="710" y="639" type="line" smooth="yes"/>
      <point x="710.0" y="668.0"/>
      <point x="751" y="680"/>
      <point x="808" y="680" type="curve" smooth="yes"/>
      <point x="822" y="680" type="line"/>
      <point x="822" y="710" type="line"/>
      <point x="551" y="710" type="line"/>
      <point x="551" y="680" type="line"/>
      <point x="567" y="680" type="line" smooth="yes"/>
      <point x="617" y="680"/>
      <point x="673.0" y="672.0"/>
      <point x="673" y="665" type="curve" smooth="yes"/>
      <point x="673" y="49" type="line"/>
      <point x="682" y="45" type="line"/>
      <point x="223" y="710" type="line"/>
      <point x="52" y="710" type="line"/>
      <point x="52" y="680" type="line"/>
      <point x="65" y="680" type="line" smooth="yes"/>
      <point x="122" y="680"/>
      <point x="164" y="673"/>
      <point x="164" y="644" type="curve" smooth="yes"/>
      <point x="164" y="71" type="line" smooth="yes"/>
      <point x="164.0" y="42.0"/>
      <point x="122" y="30"/>
      <point x="65" y="30" type="curve" smooth="yes"/>
      <point x="52" y="30" type="line"/>
    </contour>
  </outline>
</glyph>
<glyph name="T" format="2">
  <advance width="730"/>
  <unicode hex="0054"/>
  <anchor x="364.4932" y="741.0" name="top"/>
  <anchor x="364.4932" y="0.0" name="bottom"/>
  <outline>
    <contour>
      <point x="345" y="66" type="line" smooth="yes"/>
      <point x="345.0" y="37.0"/>
      <point x="303" y="30"/>
      <point x="246" y="30" type="curve" smooth="yes"/>
      <point x="227" y="30" type="line"/>
      <point x="227" y="0" type="line"/>
      <point x="502" y="0" type="line"/>
      <point x="502" y="30" type="line"/>
      <point x="484" y="30" type="line" smooth="yes"/>
      <point x="427" y="30"/>
      <point x="385.0" y="37.0"/>
      <point x="385" y="66" type="curve" smooth="yes"/>
      <point x="385" y="680" type="line"/>
      <point x="501" y="680" type="line" smooth="yes"/>
      <point x="600" y="680"/>
      <point x="642" y="673"/>
      <point x="646" y="637" type="curve" smooth="yes"/>
      <point x="656" y="539" type="line"/>
      <point x="683" y="539" type="line"/>
      <point x="683" y="710" type="line"/>
      <point x="46" y="710" type="line"/>
      <point x="46" y="539" type="line"/>
      <point x="73" y="539" type="line"/>
      <point x="84" y="637" type="line" smooth="yes"/>
      <point x="88" y="673"/>
      <point x="129" y="680"/>
      <point x="229" y="680" type="curve" smooth="yes"/>
      <point x="345" y="680" type="line"/>
    </contour>
  </outline>
</glyph>
<glyph name="U" format="2">
  <advance width="907"/>
  <unicode hex="0055"/>
  <anchor x="453.1984" y="741.0" name="top"/>
  <anchor x="515.8556" y="0.0" name="right"/>
  <anchor x="453.1984" y="0.0" name="bottom"/>
  <outline>
    <contour>
      <point x="204" y="259" type="curve" smooth="yes"/>
      <point x="204" y="670" type="line" smooth="yes"/>
      <point x="204" y="677"/>
      <point x="261" y="680"/>
      <point x="306" y="680" type="curve" smooth="yes"/>
      <point x="316" y="680" type="line"/>
      <point x="316" y="710" type="line"/>
      <point x="53" y="710" type="line"/>
      <point x="53" y="680" type="line"/>
      <point x="65" y="680" type="line" smooth="yes"/>
      <point x="122" y="680"/>
      <point x="164" y="673"/>
      <point x="164" y="644" type="curve" smooth="yes"/>
      <point x="164" y="259" type="line" smooth="yes"/>
      <point x="164" y="67.0"/>
      <point x="288" y="-10"/>
      <point x="455" y="-10" type="curve" smooth="yes"/>
      <point x="617" y="-10"/>
      <point x="744" y="62"/>
      <point x="744" y="250" type="curve" smooth="yes"/>
      <point x="744" y="635" type="line" smooth="yes"/>
      <point x="744.0" y="669.0"/>
      <point x="782.0" y="680.0"/>
      <point x="842" y="680" type="curve" smooth="yes"/>
      <point x="855" y="680" type="line"/>
      <point x="855" y="710" type="line"/>
      <point x="598" y="710" type="line"/>
      <point x="598" y="680" type="line"/>
      <point x="608" y="680" type="line" smooth="yes"/>
      <point x="652" y="680"/>
      <point x="708" y="672"/>
      <point x="708" y="658" type="curve" smooth="yes"/>
      <point x="708" y="250" type="line" smooth="yes"/>
      <point x="708.0" y="84.0"/>
      <point x="600" y="25"/>
      <point x="459" y="25" type="curve" smooth="yes"/>
      <point x="316" y="25"/>
      <point x="204" y="84"/>
    </contour>
  </outline>
</glyph>
<glyph name="d" format="2">
  <advance width="694"/>
  <unicode hex="0064"/>
  <anchor x="651.4431999999999" y="735.0" name="right"/>
  <anchor x="318.0532" y="0.0" name="bottom"/>
  <outline>
    <contour>
      <point x="523" y="0" type="line"/>
      <point x="660" y="0" type="line"/>
      <point x="660" y="27" type="line"/>
      <point x="659" y="27" type="line"/>
      <point x="603" y="27"/>
      <point x="563.0" y="34.0"/>
      <point x="563" y="63" type="curve" smooth="yes"/>
      <point x="563" y="735" type="line"/>
      <point x="425" y="735" type="line"/>
      <point x="425" y="710" type="line"/>
      <point x="438" y="708" type="line" smooth="yes"/>
      <point x="496" y="699"/>
      <point x="523.0" y="694.0"/>
      <point x="523" y="665" type="curve" smooth="yes"/>
      <point x="523" y="132" type="line"/>
      <point x="523" y="132" type="line"/>
    </contour>
    <contour>
      <point x="299" y="-10" type="curve" smooth="yes"/>
      <point x="401" y="-10.0"/>
      <point x="469" y="33"/>
      <point x="528" y="120" type="curve"/>
      <point x="528" y="171" type="line"/>
      <point x="469" y="74"/>
      <point x="396" y="20"/>
      <point x="303" y="20" type="curve" smooth="yes"/>
      <point x="171" y="20.0"/>
      <point x="94.0" y="108.0"/>
      <point x="94" y="250" type="curve" smooth="yes"/>
      <point x="94.0" y="392.0"/>
      <point x="180" y="488"/>
      <point x="312" y="488" type="curve" smooth="yes"/>
      <point x="412" y="488"/>
      <point x="483" y="424"/>
      <point x="528" y="332" type="curve"/>
      <point x="528" y="392" type="line"/>
      <point x="480" y="473"/>
      <point x="412" y="518"/>
      <point x="308" y="518" type="curve" smooth="yes"/>
      <point x="156" y="518"/>
      <point x="51" y="408"/>
      <point x="51" y="250" type="curve" smooth="yes"/>
      <point x="51.0" y="93.0"/>
      <point x="147" y="-10.0"/>
    </contour>
  </outline>
</glyph>
<glyph name="f" format="2">
  <advance width="425"/>
  <unicode hex="0066"/>
  <outline>
    <contour>
      <point x="40" y="508" type="line"/>
      <point x="40" y="481" type="line"/>
      <point x="390" y="481" type="line"/>
      <point x="390" y="508" type="line"/>
    </contour>
    <contour>
      <point x="410" y="742" type="line"/>
      <point x="392.0" y="748.0"/>
      <point x="361.0" y="752.0"/>
      <point x="326" y="752" type="curve" smooth="yes"/>
      <point x="229.0" y="752.0"/>
      <point x="161" y="708.724358974359"/>
      <point x="161" y="595" type="curve" smooth="yes"/>
      <point x="161" y="63" type="line" smooth="yes"/>
      <point x="161.0" y="34.0"/>
      <point x="123" y="27"/>
      <point x="59" y="27" type="curve" smooth="yes"/>
      <point x="46" y="27" type="line"/>
      <point x="46" y="0" type="line"/>
      <point x="326" y="0" type="line"/>
      <point x="326" y="27" type="line"/>
      <point x="311" y="27" type="line" smooth="yes"/>
      <point x="249" y="27"/>
      <point x="201.0" y="30.0"/>
      <point x="201" y="37" type="curve" smooth="yes"/>
      <point x="201" y="595" type="line" smooth="yes"/>
      <point x="201" y="694.7857142857142"/>
      <point x="247.0" y="722.0"/>
      <point x="323" y="722" type="curve" smooth="yes"/>
      <point x="357" y="722"/>
      <point x="387" y="716"/>
      <point x="410" y="709" type="curve"/>
    </contour>
  </outline>
</glyph>
<glyph name="g" format="2">
  <advance width="638"/>
  <unicode hex="0067"/>
  <anchor x="297.9096" y="545.0" name="top"/>
  <outline>
    <contour>
      <point x="297" y="187" type="curve" smooth="yes"/>
      <point x="197.41764705882352" y="187.0"/>
      <point x="126.0" y="241.0"/>
      <point x="126" y="336" type="curve" smooth="yes"/>
      <point x="126.0" y="431.0"/>
      <point x="199" y="488.0"/>
      <point x="297" y="488" type="curve" smooth="yes"/>
      <point x="396" y="488.0"/>
      <point x="469.0" y="431.0"/>
      <point x="469" y="336" type="curve" smooth="yes"/>
      <point x="469.0" y="241.0"/>
      <point x="396.57894736842104" y="187.0"/>
    </contour>
    <contour>
      <point x="297" y="157" type="curve" smooth="yes"/>
      <point x="416" y="157"/>
      <point x="511" y="227"/>
      <point x="511" y="336" type="curve" smooth="yes"/>
      <point x="511" y="444"/>
      <point x="415" y="518"/>
      <point x="297" y="518" type="curve" smooth="yes"/>
      <point x="179" y="518"/>
      <point x="84" y="444"/>
      <point x="84" y="336" type="curve" smooth="yes"/>
      <point x="84" y="227"/>
      <point x="178" y="157"/>
    </contour>
    <contour>
      <point x="461" y="429" type="line"/>
      <point x="496.95881353574214" y="478.31494427758923"/>
      <point x="534.9788824072388" y="485.0017597993968"/>
      <point x="607" y="479" type="curve"/>
      <point x="607" y="523" type="line"/>
      <point x="533" y="530"/>
      <point x="477" y="499"/>
      <point x="443" y="444" type="curve"/>
    </contour>
    <contour>
      <point x="313" y="-236" type="line" smooth="yes"/>
      <point x="466.0" y="-236.0"/>
      <point x="593.0" y="-175.83850931677017"/>
      <point x="593" y="-69" type="curve" smooth="yes"/>
      <point x="593.0" y="7.7739130434782595"/>
      <point x="536.0" y="40"/>
      <point x="422" y="40" type="curve" smooth="yes"/>
      <point x="204" y="40" type="line" smooth="yes"/>
      <point x="142" y="40"/>
      <point x="110.0" y="56.0"/>
      <point x="110" y="94" type="curve" smooth="yes"/>
      <point x="110.0" y="131"/>
      <point x="151.13667551626543" y="160.40333647351352"/>
      <point x="212" y="182" type="curve"/>
      <point x="198" y="202" type="line"/>
      <point x="117.18642392332663" y="170.46299470178602"/>
      <point x="70.0" y="133"/>
      <point x="70" y="85" type="curve" smooth="yes"/>
      <point x="70.0" y="47.0"/>
      <point x="97.59977681970678" y="21.826987455853814"/>
      <point x="149" y="7" type="curve"/>
      <point x="152" y="2" type="line"/>
      <point x="421" y="2" type="line" smooth="yes"/>
      <point x="520.264" y="2"/>
      <point x="553.0" y="-20.243902439024396"/>
      <point x="553" y="-74" type="curve" smooth="yes"/>
      <point x="553.0" y="-152.57142857142856"/>
      <point x="453.0901639344262" y="-206"/>
      <point x="314" y="-206" type="curve" smooth="yes"/>
      <point x="279" y="-206" type="line" smooth="yes"/>
      <point x="142.0" y="-206.0"/>
      <point x="71.0" y="-172.0"/>
      <point x="71" y="-107" type="curve" smooth="yes"/>
      <point x="71" y="-59"/>
      <point x="110.42453213563132" y="-25.233100907086047"/>
      <point x="190" y="7" type="curve"/>
      <point x="180" y="26" type="line"/>
      <point x="78" y="-11"/>
      <point x="31.0" y="-49.0"/>
      <point x="31" y="-110" type="curve" smooth="yes"/>
      <point x="31.0" y="-203.0"/>
      <point x="145.0" y="-236.0"/>
      <point x="279" y="-236" type="curve" smooth="yes"/>
    </contour>
  </outline>
</glyph>
<glyph name="l" format="2">
  <advance width="319"/>
  <unicode hex="006C"/>
  <anchor x="164.93" y="746.0" name="top"/>
  <anchor x="276.4936" y="735.0" name="right"/>
  <anchor x="334.1112" y="391.0" name="mid"/>
  <anchor x="168.39000000000001" y="0.0" name="bottom"/>
  <outline>
    <contour>
      <point x="178" y="735" type="line"/>
      <point x="41" y="735" type="line"/>
      <point x="41" y="710" type="line"/>
      <point x="54" y="708" type="line" smooth="yes"/>
      <point x="111" y="699"/>
      <point x="138.0" y="694.0"/>
      <point x="138" y="664" type="curve" smooth="yes"/>
      <point x="138" y="63" type="line" smooth="yes"/>
      <point x="138" y="34"/>
      <point x="99" y="27"/>
      <point x="43" y="27" type="curve" smooth="yes"/>
      <point x="41" y="27" type="line"/>
      <point x="41" y="0" type="line"/>
      <point x="276" y="0" type="line"/>
      <point x="276" y="27" type="line"/>
      <point x="273" y="27" type="line" smooth="yes"/>
      <point x="218" y="27"/>
      <point x="178.0" y="34.0"/>
      <point x="178" y="63" type="curve" smooth="yes"/>
    </contour>
  </outline>
</glyph>
<glyph name="n" format="2">
  <advance width="690"/>
  <unicode hex="006E"/>
  <anchor x="337" y="551.0" name="top"/>
  <anchor x="344" y="0.0" name="bottom"/>
  <outline>
    <contour>
      <point x="40" y="0" type="line"/>
      <point x="265" y="0" type="line"/>
      <point x="265" y="27" type="line"/>
      <point x="261" y="27" type="line" smooth="yes"/>
      <point x="229" y="27"/>
      <point x="178.0" y="30.0"/>
      <point x="178" y="37" type="curve" smooth="yes"/>
      <point x="178" y="398" type="line"/>
      <point x="178" y="398" type="line"/>
      <point x="178" y="508" type="line"/>
      <point x="40" y="508" type="line"/>
      <point x="40" y="483" type="line"/>
      <point x="53" y="481" type="line" smooth="yes"/>
      <point x="111" y="472"/>
      <point x="138.0" y="467.0"/>
      <point x="138" y="438" type="curve" smooth="yes"/>
      <point x="138" y="63" type="line" smooth="yes"/>
      <point x="138" y="34"/>
      <point x="98" y="27"/>
      <point x="43" y="27" type="curve" smooth="yes"/>
      <point x="40" y="27" type="line"/>
    </contour>
    <contour>
      <point x="656" y="0" type="line"/>
      <point x="656" y="27" type="line"/>
      <point x="654" y="27" type="line" smooth="yes"/>
      <point x="598" y="27"/>
      <point x="559" y="34"/>
      <point x="559" y="63" type="curve" smooth="yes"/>
      <point x="559" y="361" type="line" smooth="yes"/>
      <point x="559.0" y="470.0"/>
      <point x="495" y="518"/>
      <point x="389" y="518" type="curve" smooth="yes"/>
      <point x="307.0" y="518.0"/>
      <point x="233.0" y="479.0"/>
      <point x="174" y="409" type="curve"/>
      <point x="174" y="365" type="line"/>
      <point x="229.0" y="437.0"/>
      <point x="301.0" y="485.0"/>
      <point x="382" y="485" type="curve" smooth="yes"/>
      <point x="482" y="485"/>
      <point x="519.0" y="444.0"/>
      <point x="519" y="350" type="curve" smooth="yes"/>
      <point x="519" y="37" type="line" smooth="yes"/>
      <point x="519" y="30"/>
      <point x="467" y="27"/>
      <point x="434" y="27" type="curve" smooth="yes"/>
      <point x="432" y="27" type="line"/>
      <point x="432" y="0" type="line"/>
    </contour>
  </outline>
</glyph>
<glyph name="p" format="2">
  <advance width="701"/>
  <unicode hex="0070"/>
  <outline>
    <contour>
      <point x="41" y="-223" type="line"/>
      <point x="297" y="-223" type="line"/>
      <point x="297" y="-196" type="line"/>
      <point x="263" y="-196" type="line" smooth="yes"/>
      <point x="233" y="-196"/>
      <point x="179.0" y="-193.0"/>
      <point x="179" y="-186" type="curve" smooth="yes"/>
      <point x="179" y="370" type="line"/>
      <point x="179" y="371" type="line"/>
      <point x="179" y="508" type="line"/>
      <point x="41" y="508" type="line"/>
      <point x="41" y="483" type="line"/>
      <point x="54" y="481" type="line" smooth="yes"/>
      <point x="111" y="472"/>
      <point x="139.0" y="467.0"/>
      <point x="139" y="438" type="curve" smooth="yes"/>
      <point x="139" y="-160" type="line" smooth="yes"/>
      <point x="139" y="-189"/>
      <point x="99" y="-196"/>
      <point x="43" y="-196" type="curve"/>
      <point x="41" y="-196" type="line"/>
    </contour>
    <contour>
      <point x="398" y="-10" type="curve" smooth="yes"/>
      <point x="550" y="-10"/>
      <point x="651" y="99"/>
      <point x="651" y="257" type="curve" smooth="yes"/>
      <point x="651" y="414"/>
      <point x="558" y="518"/>
      <point x="408" y="518" type="curve" smooth="yes"/>
      <point x="303" y="518.0"/>
      <point x="229" y="468"/>
      <point x="172" y="386" type="curve"/>
      <point x="172" y="336" type="line"/>
      <point x="232" y="433"/>
      <point x="311.0" y="488.0"/>
      <point x="401" y="488" type="curve" smooth="yes"/>
      <point x="535" y="488"/>
      <point x="608.0" y="399"/>
      <point x="608" y="257" type="curve" smooth="yes"/>
      <point x="608.0" y="115"/>
      <point x="533.0" y="20.0"/>
      <point x="395" y="20" type="curve" smooth="yes"/>
      <point x="297" y="20.0"/>
      <point x="221" y="78"/>
      <point x="173" y="176" type="curve"/>
      <point x="173" y="117" type="line"/>
      <point x="223" y="38"/>
      <point x="297" y="-10.0"/>
    </contour>
  </outline>
</glyph>
<glyph name="q" format="2">
  <advance width="664"/>
  <unicode hex="0071"/>
  <outline>
    <contour>
      <point x="403" y="-223" type="line"/>
      <point x="659" y="-223" type="line"/>
      <point x="659" y="-196" type="line"/>
      <point x="657" y="-196" type="line"/>
      <point x="601" y="-196"/>
      <point x="562.0" y="-189.0"/>
      <point x="562" y="-160" type="curve" smooth="yes"/>
      <point x="562" y="511" type="line"/>
      <point x="537" y="511" type="line"/>
      <point x="522" y="392" type="line"/>
      <point x="522" y="392" type="line"/>
      <point x="522" y="-186" type="line" smooth="yes"/>
      <point x="522" y="-193"/>
      <point x="467" y="-196"/>
      <point x="437" y="-196" type="curve" smooth="yes"/>
      <point x="403" y="-196" type="line"/>
    </contour>
    <contour>
      <point x="299" y="-10" type="curve" smooth="yes"/>
      <point x="401" y="-10.0"/>
      <point x="469" y="33"/>
      <point x="528" y="120" type="curve"/>
      <point x="528" y="171" type="line"/>
      <point x="469" y="74"/>
      <point x="396" y="20"/>
      <point x="303" y="20" type="curve" smooth="yes"/>
      <point x="171" y="20.0"/>
      <point x="94.0" y="108.0"/>
      <point x="94" y="250" type="curve" smooth="yes"/>
      <point x="94.0" y="392.0"/>
      <point x="180" y="488"/>
      <point x="312" y="488" type="curve" smooth="yes"/>
      <point x="412" y="488"/>
      <point x="483" y="424"/>
      <point x="528" y="332" type="curve"/>
      <point x="528" y="392" type="line"/>
      <point x="480" y="473"/>
      <point x="412" y="518"/>
      <point x="308" y="518" type="curve" smooth="yes"/>
      <point x="156" y="518"/>
      <point x="51" y="408"/>
      <point x="51" y="250" type="curve" smooth="yes"/>
      <point x="51.0" y="93.0"/>
      <point x="147" y="-10.0"/>
    </contour>
  </outline>
</glyph>
<glyph name="r" format="2">
  <advance width="416"/>
  <unicode hex="0072"/>
  <anchor x="224" y="545.0" name="top"/>
  <anchor x="170" y="0.0" name="bottom"/>
  <outline>
    <contour>
      <point x="381" y="514" type="line"/>
      <point x="374" y="516"/>
      <point x="355" y="518"/>
      <point x="341" y="518" type="curve" smooth="yes"/>
      <point x="273" y="518"/>
      <point x="215" y="471"/>
      <point x="174" y="403" type="curve"/>
      <point x="174" y="357" type="line"/>
      <point x="216.27831454174373" y="432.49699025311384"/>
      <point x="261.0" y="474.0"/>
      <point x="326" y="474" type="curve" smooth="yes"/>
      <point x="341.0" y="474.0"/>
      <point x="360" y="473"/>
      <point x="381" y="468" type="curve"/>
    </contour>
    <contour>
      <point x="40" y="0" type="line"/>
      <point x="293" y="0" type="line"/>
      <point x="293" y="27" type="line"/>
      <point x="279" y="27.0" type="line" smooth="yes"/>
      <point x="235" y="27"/>
      <point x="178.0" y="32.0"/>
      <point x="178" y="61" type="curve" smooth="yes"/>
      <point x="178" y="397" type="line"/>
      <point x="179" y="396" type="line"/>
      <point x="179" y="508" type="line"/>
      <point x="40" y="508" type="line"/>
      <point x="40" y="483" type="line"/>
      <point x="53" y="481" type="line" smooth="yes"/>
      <point x="111" y="472"/>
      <point x="138.0" y="467.0"/>
      <point x="138" y="438" type="curve" smooth="yes"/>
      <point x="138" y="63" type="line" smooth="yes"/>
      <point x="138" y="34"/>
      <point x="98" y="27"/>
      <point x="43" y="27" type="curve" smooth="yes"/>
      <point x="40" y="27" type="line"/>
    </contour>
  </outline>
</glyph>
<glyph name="s" format="2">
  <advance width="513"/>
  <unicode hex="0073"/>
  <anchor x="255.97560000000001" y="546.0" name="top"/>
  <anchor x="255.64440000000002" y="0.0" name="bottom"/>
  <outline>
    <contour>
      <point x="426" y="127" type="curve" smooth="yes"/>
      <point x="426.0" y="62.0"/>
      <point x="362.6134969325153" y="20.0"/>
      <point x="262" y="20" type="curve" smooth="yes"/>
      <point x="188.60109289617486" y="20.0"/>
      <point x="129.8495960500997" y="33.107018195121356"/>
      <point x="78" y="70" type="curve"/>
      <point x="78.97788593887383" y="58.26536873351414"/>
      <point x="82.40465038993057" y="42.501968750854694"/>
      <point x="95" y="27" type="curve"/>
      <point x="95" y="129" type="line"/>
      <point x="47" y="129" type="line"/>
      <point x="47" y="44" type="line"/>
      <point x="97" y="12"/>
      <point x="169" y="-10"/>
      <point x="262" y="-10" type="curve" smooth="yes"/>
      <point x="391" y="-10"/>
      <point x="466" y="52"/>
      <point x="466" y="132" type="curve" smooth="yes"/>
      <point x="466" y="225"/>
      <point x="391.11360676637486" y="247.6889927048863"/>
      <point x="279" y="279" type="curve" smooth="yes"/>
      <point x="194.93677257659397" y="302.7354995077852"/>
      <point x="113.0" y="313.0"/>
      <point x="113" y="390" type="curve" smooth="yes"/>
      <point x="113.0" y="448.0"/>
      <point x="165.7074829931973" y="488.0"/>
      <point x="262" y="488" type="curve" smooth="yes"/>
      <point x="323.44202898550725" y="488.0"/>
      <point x="371.88724327388695" y="472.1049804001742"/>
      <point x="401" y="445" type="curve"/>
      <point x="398.993049292968" y="454.0312781816439"/>
      <point x="392.7819116626636" y="465.186932860574"/>
      <point x="386" y="471" type="curve"/>
      <point x="386" y="395" type="line"/>
      <point x="434" y="395" type="line"/>
      <point x="434" y="473" type="line"/>
      <point x="401" y="494"/>
      <point x="347" y="518"/>
      <point x="262" y="518" type="curve" smooth="yes"/>
      <point x="147" y="518"/>
      <point x="73" y="467"/>
      <point x="73" y="385" type="curve" smooth="yes"/>
      <point x="73.0" y="296.0"/>
      <point x="163.52984985920068" y="271.1239956415295"/>
      <point x="255" y="247" type="curve" smooth="yes"/>
      <point x="360.42402732762463" y="219.1521437247784"/>
      <point x="426" y="204"/>
    </contour>
  </outline>
</glyph>
<glyph name="v" format="2">
  <advance width="628"/>
  <unicode hex="0076"/>
  <outline>
    <contour>
      <point x="501" y="470" type="curve"/>
      <point x="310" y="26" type="line"/>
      <point x="325" y="25" type="line"/>
      <point x="132" y="470" type="line"/>
      <point x="132.0" y="477.0"/>
      <point x="180" y="479"/>
      <point x="228" y="479" type="curve" smooth="yes"/>
      <point x="230" y="479" type="line"/>
      <point x="230" y="508" type="line"/>
      <point x="12" y="508" type="line"/>
      <point x="12" y="479" type="line"/>
      <point x="14" y="479" type="line" smooth="yes"/>
      <point x="59" y="479"/>
      <point x="87" y="472"/>
      <point x="99" y="445" type="curve" smooth="yes"/>
      <point x="293" y="0" type="line"/>
      <point x="335" y="0" type="line"/>
      <point x="529" y="446" type="line" smooth="yes"/>
      <point x="541" y="473"/>
      <point x="565.0" y="479"/>
      <point x="613" y="479" type="curve" smooth="yes"/>
      <point x="616" y="479" type="line"/>
      <point x="616" y="508" type="line"/>
      <point x="403" y="508" type="line"/>
      <point x="403" y="479" type="line"/>
      <point x="406" y="479" type="line" smooth="yes"/>
      <point x="452.5968851132686" y="479"/>
      <point x="501.0" y="477.0"/>
    </contour>
  </outline>
</glyph>
<glyph name="y" format="2">
  <advance width="649"/>
  <unicode hex="0079"/>
  <anchor x="324.01" y="551.0" name="top"/>
  <anchor x="337.09839999999997" y="-211.0" name="bottom"/>
  <outline>
    <contour>
      <point x="313" y="-14" type="line"/>
      <point x="333" y="0" type="line"/>
      <point x="341" y="20" type="line"/>
      <point x="133" y="470" type="line"/>
      <point x="133.0" y="477.0"/>
      <point x="184.76470588235293" y="479"/>
      <point x="229" y="479" type="curve" smooth="yes"/>
      <point x="231" y="479" type="line"/>
      <point x="231" y="508" type="line"/>
      <point x="12" y="508" type="line"/>
      <point x="12" y="479" type="line"/>
      <point x="13" y="479" type="line"/>
      <point x="60" y="479"/>
      <point x="88" y="472"/>
      <point x="101" y="444" type="curve" smooth="yes"/>
    </contour>
    <contour>
      <point x="98" y="-230" type="curve" smooth="yes"/>
      <point x="220" y="-230.0"/>
      <point x="284.19119694390326" y="-145.81832707069515"/>
      <point x="338" y="-28" type="curve" smooth="yes"/>
      <point x="549" y="434" type="line" smooth="yes"/>
      <point x="566" y="471"/>
      <point x="583" y="479.0"/>
      <point x="640" y="479" type="curve"/>
      <point x="641" y="479" type="line"/>
      <point x="641" y="508" type="line"/>
      <point x="425" y="508" type="line"/>
      <point x="425" y="479" type="line"/>
      <point x="428" y="479" type="line" smooth="yes"/>
      <point x="493.0" y="479"/>
      <point x="524.0" y="473.2857142857143"/>
      <point x="524" y="463" type="curve"/>
      <point x="329" y="31" type="line"/>
      <point x="314" y="0" type="line"/>
      <point x="240.41836482317382" y="-155.22701119494832"/>
      <point x="187" y="-187.0"/>
      <point x="102" y="-187" type="curve" smooth="yes"/>
      <point x="56" y="-187"/>
      <point x="21.28151659819998" y="-169.04691943303334"/>
      <point x="15" y="-168" type="curve"/>
      <point x="15" y="-213" type="line"/>
      <point x="27.45614250384586" y="-220.2660831272434"/>
      <point x="60" y="-230"/>
    </contour>
  </outline>
</glyph>
<glyph name="Eth" format="2">
  <advance width="833"/>
  <unicode hex="00D0"/>
  <outline>
    <contour>
      <point x="52" y="371" type="line"/>
      <point x="505" y="371" type="line"/>
      <point x="505" y="339" type="line"/>
      <point x="52" y="339" type="line"/>
    </contour>
    <component base="D" xOffset="33.331600000000016"/>
  </outline>
</glyph>
<glyph name="breve" format="2">
  <advance width="580"/>
  <unicode hex="02D8"/>
  <anchor x="294.2712" y="536.08" name="_top"/>
  <outline>
    <contour>
      <point x="294" y="593" type="curve" smooth="yes"/>
      <point x="215" y="593"/>
      <point x="161" y="642"/>
      <point x="155" y="736" type="curve"/>
      <point x="184" y="736" type="line"/>
      <point x="195" y="662"/>
      <point x="233" y="638"/>
      <point x="295" y="638" type="curve" smooth="yes"/>
      <point x="355" y="638"/>
      <point x="395" y="662"/>
      <point x="406" y="736" type="curve"/>
      <point x="433" y="736" type="line"/>
      <point x="427" y="642"/>
      <point x="373" y="593"/>
    </contour>
  </outline>
</glyph>
<glyph name="kip" format="2">
  <advance width="650"/>
  <unicode hex="20AD"/>
  <outline>
    <contour>
      <point x="36" y="387" type="line"/>
      <point x="36" y="355" type="line"/>
      <point x="568" y="355" type="line"/>
      <point x="568" y="387" type="line"/>
    </contour>
    <contour>
      <point x="36" y="0" type="line"/>
      <point x="304" y="0" type="line" smooth="yes"/>
      <point x="304" y="31" type="line" smooth="yes"/>
      <point x="293" y="31" type="line" smooth="yes"/>
      <point x="249" y="31"/>
      <point x="192" y="34"/>
      <point x="192" y="41" type="curve" smooth="yes"/>
      <point x="192" y="669" type="line" smooth="yes"/>
      <point x="192" y="676"/>
      <point x="249" y="679"/>
      <point x="293" y="679" type="curve" smooth="yes"/>
      <point x="304" y="679" type="line" smooth="yes"/>
      <point x="304" y="710" type="line" smooth="yes"/>
      <point x="36" y="710" type="line"/>
      <point x="36" y="679" type="line"/>
      <point x="49" y="679" type="line" smooth="yes"/>
      <point x="109" y="679"/>
      <point x="151" y="672"/>
      <point x="151" y="643" type="curve" smooth="yes"/>
      <point x="151" y="67" type="line" smooth="yes"/>
      <point x="151" y="38"/>
      <point x="109" y="31"/>
      <point x="49" y="31" type="curve" smooth="yes"/>
      <point x="36" y="31" type="line"/>
    </contour>
    <contour>
      <point x="649" y="31" type="line"/>
      <point x="636" y="31" type="line" smooth="yes"/>
      <point x="591" y="31"/>
      <point x="571" y="34"/>
      <point x="546" y="64" type="curve" smooth="yes"/>
      <point x="291" y="383" type="line"/>
      <point x="281" y="358" type="line"/>
      <point x="542" y="650" type="line" smooth="yes"/>
      <point x="562" y="673"/>
      <point x="584" y="679"/>
      <point x="620" y="679" type="curve" smooth="yes"/>
      <point x="639" y="679" type="line"/>
      <point x="639" y="710" type="line"/>
      <point x="410" y="710" type="line"/>
      <point x="410" y="679" type="line"/>
      <point x="421" y="679" type="line" smooth="yes"/>
      <point x="465" y="679"/>
      <point x="513" y="676"/>
      <point x="516" y="669" type="curve"/>
      <point x="248" y="367" type="line"/>
      <point x="261" y="361" type="line"/>
      <point x="520" y="41" type="line"/>
      <point x="520" y="34"/>
      <point x="464" y="31"/>
      <point x="420" y="31" type="curve" smooth="yes"/>
      <point x="410" y="31" type="line"/>
      <point x="410" y="0" type="line"/>
      <point x="649" y="0" type="line"/>
    </contour>
  </outline>
</glyph>
<glyph name="numero" format="2">
  <advance width="1369"/>
  <unicode hex="2116"/>
  <outline>
    <contour>
      <point x="918" y="227" type="line"/>
      <point x="1311" y="227" type="line"/>
      <point x="1311" y="195" type="line"/>
      <point x="918" y="195" type="line"/>
    </contour>
    <component base="N" xOffset="92.05520000000001"/>
    <component base="ordmasculine" xOffset="790.826"/>
  </outline>
</glyph>
<glyph name="uni25B5" format="2">
  <advance width="968"/>
  <unicode hex="25B5"/>
  <outline>
    <contour>
      <point x="23" y="0" type="line"/>
      <point x="945" y="0" type="line"/>
      <point x="484" y="715" type="line"/>
    </contour>
    <contour>
      <point x="132" y="63" type="line"/>
      <point x="142" y="44" type="line"/>
      <point x="491" y="592" type="line"/>
      <point x="477" y="592" type="line"/>
      <point x="827" y="44" type="line"/>
      <point x="836" y="63" type="line"/>
    </contour>
  </outline>
</glyph>
<glyph name="uni27F7" format="2">
  <advance width="1508"/>
  <unicode hex="27F7"/>
  <outline>
    <contour>
      <point x="1178" y="324" type="line"/>
      <point x="1075" y="192" type="line"/>
      <point x="1087" y="179" type="line"/>
      <point x="1444" y="346" type="line"/>
      <point x="1444" y="360" type="line"/>
      <point x="1087" y="527" type="line"/>
      <point x="1075" y="514" type="line"/>
      <point x="1178" y="382" type="line"/>
      <point x="330" y="382" type="line"/>
      <point x="433" y="514" type="line"/>
      <point x="421" y="527" type="line"/>
      <point x="64" y="360" type="line"/>
      <point x="64" y="346" type="line"/>
      <point x="421" y="179" type="line"/>
      <point x="433" y="192" type="line"/>
      <point x="330" y="324" type="line"/>
    </contour>
  </outline>
</glyph>
<glyph name="circumflex_acute.uc" format="2">
  <advance width="592"/>
  <anchor x="284.56" y="749.0" name="_top"/>
  <outline>
    <contour>
      <point x="485" y="926" type="curve" smooth="yes"/>
      <point x="434" y="849" type="line"/>
      <point x="434" y="835" type="line"/>
      <point x="449" y="835" type="line"/>
      <point x="528" y="903" type="line" smooth="yes"/>
      <point x="551" y="924"/>
      <point x="564" y="937"/>
      <point x="564" y="952" type="curve" smooth="yes"/>
      <point x="564" y="966"/>
      <point x="553" y="975"/>
      <point x="538" y="975" type="curve" smooth="yes"/>
      <point x="518" y="975"/>
      <point x="510" y="960"/>
    </contour>
    <component base="circumflex.uc" xOffset="44.003600000000006"/>
  </outline>
</glyph>
<glyph name="eight.lin" format="2">
  <advance width="650"/>
  <outline>
    <contour>
      <point x="325" y="-10" type="curve" smooth="yes"/>
      <point x="467" y="-10"/>
      <point x="588" y="72"/>
      <point x="588" y="192" type="curve" smooth="yes"/>
      <point x="588" y="312"/>
      <point x="463" y="387"/>
      <point x="325" y="387" type="curve" smooth="yes"/>
      <point x="188" y="387"/>
      <point x="62" y="312"/>
      <point x="62" y="192" type="curve" smooth="yes"/>
      <point x="62" y="72"/>
      <point x="183" y="-10"/>
    </contour>
    <contour>
      <point x="325" y="360" type="curve" smooth="yes"/>
      <point x="447" y="360"/>
      <point x="544" y="300"/>
      <point x="544" y="197" type="curve" smooth="yes"/>
      <point x="544" y="89"/>
      <point x="447" y="21"/>
      <point x="325" y="21" type="curve" smooth="yes"/>
      <point x="203" y="21"/>
      <point x="106" y="89"/>
      <point x="106" y="197" type="curve" smooth="yes"/>
      <point x="106" y="300"/>
      <point x="203" y="360"/>
    </contour>
    <contour>
      <point x="325" y="368" type="curve" smooth="yes"/>
      <point x="442" y="368"/>
      <point x="548" y="435"/>
      <point x="548" y="543" type="curve" smooth="yes"/>
      <point x="548" y="648"/>
      <point x="442" y="720"/>
      <point x="325" y="720" type="curve" smooth="yes"/>
      <point x="208" y="720"/>
      <point x="102" y="648"/>
      <point x="102" y="543" type="curve" smooth="yes"/>
      <point x="102" y="435"/>
      <point x="208" y="368"/>
    </contour>
    <contour>
      <point x="325" y="689" type="curve" smooth="yes"/>
      <point x="428" y="689"/>
      <point x="506" y="630"/>
      <point x="506" y="538" type="curve" smooth="yes"/>
      <point x="506" y="447"/>
      <point x="422" y="392"/>
      <point x="325" y="392" type="curve" smooth="yes"/>
      <point x="228" y="392"/>
      <point x="145" y="447"/>
      <point x="145" y="538" type="curve" smooth="yes"/>
      <point x="145" y="630"/>
      <point x="222" y="689"/>
    </contour>
  </outline>
</glyph>
<glyph name="lira.alt" format="2">
  <advance width="650"/>
  <outline>
    <contour>
      <point x="595" y="0" type="line"/>
      <point x="595" y="169" type="line"/>
      <point x="567" y="169" type="line"/>
      <point x="557" y="75" type="line" smooth="yes"/>
      <point x="553" y="39"/>
      <point x="511" y="32"/>
      <point x="411" y="32" type="curve" smooth="yes"/>
      <point x="90" y="32" type="line"/>
      <point x="103" y="23" type="line"/>
      <point x="206" y="68"/>
      <point x="261" y="138"/>
      <point x="261" y="223" type="curve" smooth="yes"/>
      <point x="261" y="332"/>
      <point x="161" y="411"/>
      <point x="161" y="528" type="curve" smooth="yes"/>
      <point x="161" y="631"/>
      <point x="244" y="687"/>
      <point x="359" y="687" type="curve" smooth="yes"/>
      <point x="449" y="687"/>
      <point x="509" y="656"/>
      <point x="541" y="631" type="curve"/>
      <point x="541" y="641"/>
      <point x="527" y="656"/>
      <point x="516" y="671" type="curve"/>
      <point x="516" y="574" type="line"/>
      <point x="567" y="574" type="line"/>
      <point x="567" y="661" type="line"/>
      <point x="535" y="683"/>
      <point x="469" y="718"/>
      <point x="359" y="718" type="curve" smooth="yes"/>
      <point x="218" y="718"/>
      <point x="116" y="643"/>
      <point x="116" y="528" type="curve" smooth="yes"/>
      <point x="116" y="402"/>
      <point x="222" y="314"/>
      <point x="222" y="222" type="curve" smooth="yes"/>
      <point x="222" y="125"/>
      <point x="159" y="79"/>
      <point x="57" y="37" type="curve"/>
      <point x="57" y="0" type="line"/>
    </contour>
    <contour>
      <point x="51" y="429" type="line"/>
      <point x="51" y="398" type="line"/>
      <point x="461" y="398" type="line"/>
      <point x="461" y="429" type="line"/>
    </contour>
    <contour>
      <point x="51" y="274" type="line"/>
      <point x="51" y="243" type="line"/>
      <point x="461" y="243" type="line"/>
      <point x="461" y="274" type="line"/>
    </contour>
  </outline>
</glyph>
<glyph name="minus.sup" format="2">
  <advance width="464"/>
  <outline>
    <contour>
      <point x="406" y="576" type="line"/>
      <point x="58" y="576" type="line"/>
      <point x="58" y="545" type="line"/>
      <point x="406" y="545" type="line"/>
    </contour>
  </outline>
</glyph>
<glyph name="one.lin" format="2">
  <advance width="650"/>
  <outline>
    <contour>
      <point x="386" y="64" type="curve" smooth="yes"/>
      <point x="386" y="710" type="line"/>
      <point x="361" y="710" type="line"/>
      <point x="322" y="658"/>
      <point x="240" y="636"/>
      <point x="140" y="634" type="curve"/>
      <point x="140" y="603" type="line"/>
      <point x="232" y="601"/>
      <point x="330" y="627"/>
      <point x="352" y="673" type="curve"/>
      <point x="358" y="686"/>
      <point x="361" y="693"/>
      <point x="345" y="671" type="curve"/>
      <point x="345" y="64" type="line" smooth="yes"/>
      <point x="345" y="35"/>
      <point x="299" y="28"/>
      <point x="223" y="28" type="curve" smooth="yes"/>
      <point x="151" y="28" type="line"/>
      <point x="151" y="0" type="line"/>
      <point x="572" y="0" type="line"/>
      <point x="572" y="28" type="line"/>
      <point x="519" y="28" type="line" smooth="yes"/>
      <point x="437" y="28"/>
      <point x="386" y="35"/>
    </contour>
  </outline>
</glyph>
<glyph name="seven.lin" format="2">
  <advance width="650"/>
  <outline>
    <contour>
      <point x="263" y="671" type="line" smooth="yes"/>
      <point x="163" y="671"/>
      <point x="122" y="664"/>
      <point x="118" y="628" type="curve" smooth="yes"/>
      <point x="108" y="538" type="line"/>
      <point x="80" y="538" type="line"/>
      <point x="80" y="710" type="line"/>
      <point x="610" y="710" type="line"/>
      <point x="610" y="671" type="line"/>
      <point x="464" y="503"/>
      <point x="326" y="338"/>
      <point x="297" y="0" type="curve"/>
      <point x="252" y="0" type="line"/>
      <point x="285" y="345"/>
      <point x="448" y="538"/>
      <point x="588" y="683" type="curve"/>
      <point x="597" y="671" type="line"/>
    </contour>
  </outline>
</glyph>
<glyph name="three.lin" format="2">
  <advance width="650"/>
  <outline>
    <contour>
      <point x="326" y="687" type="curve" smooth="yes"/>
      <point x="221" y="687"/>
      <point x="157" y="649"/>
      <point x="125" y="614" type="curve"/>
      <point x="129" y="641"/>
      <point x="150" y="665"/>
      <point x="150" y="667" type="curve"/>
      <point x="150" y="564" type="line"/>
      <point x="98" y="564" type="line"/>
      <point x="98" y="644" type="line"/>
      <point x="134" y="673"/>
      <point x="205" y="718"/>
      <point x="326" y="718" type="curve" smooth="yes"/>
      <point x="459" y="718"/>
      <point x="553" y="651"/>
      <point x="553" y="550" type="curve" smooth="yes"/>
      <point x="553" y="427"/>
      <point x="427" y="369"/>
      <point x="303" y="369" type="curve"/>
      <point x="323" y="379" type="line"/>
      <point x="507" y="379"/>
      <point x="590" y="300"/>
      <point x="590" y="196" type="curve" smooth="yes"/>
      <point x="590" y="76"/>
      <point x="478" y="-10"/>
      <point x="325" y="-10" type="curve" smooth="yes"/>
      <point x="176" y="-10"/>
      <point x="81" y="62"/>
      <point x="38" y="156" type="curve"/>
      <point x="63" y="180" type="line"/>
      <point x="99" y="102"/>
      <point x="181" y="21"/>
      <point x="325" y="21" type="curve" smooth="yes"/>
      <point x="458" y="21"/>
      <point x="546" y="86"/>
      <point x="546" y="196" type="curve" smooth="yes"/>
      <point x="546" y="295"/>
      <point x="471" y="358"/>
      <point x="301" y="358" type="curve" smooth="yes"/>
      <point x="229" y="358" type="line"/>
      <point x="229" y="390" type="line"/>
      <point x="300" y="390" type="line" smooth="yes"/>
      <point x="419" y="390"/>
      <point x="509" y="439"/>
      <point x="509" y="538" type="curve" smooth="yes"/>
      <point x="509" y="644"/>
      <point x="428" y="687"/>
    </contour>
  </outline>
</glyph>
